<?xml version="1.0" encoding="utf-8"?><!-- Uploaded to: SVG Repo, www.svgrepo.com, Generator: SVG Repo Mixer Tools -->
<svg fill="#000000" width="800px" height="800px" viewBox="0 0 24 24" id="chaise-longue-6" data-name="Flat Line" xmlns="http://www.w3.org/2000/svg" class="icon flat-line"><path id="secondary" d="M4,13a1,1,0,0,0-1,1v3H21V7a2,2,0,0,0-2.34-2A2.07,2.07,0,0,0,17,7.11V13Z" style="fill: rgb(44, 169, 188); stroke-width: 2;"></path><path id="primary" d="M19,19V17M5,19V17m0-4H17V7H7A2,2,0,0,0,5,9ZM4,13a1,1,0,0,0-1,1v3H21V7a2,2,0,0,0-2.34-2A2.07,2.07,0,0,0,17,7.11V13Z" style="fill: none; stroke: rgb(0, 0, 0); stroke-linecap: round; stroke-linejoin: round; stroke-width: 2;"></path></svg>